<svg xmlns="http://www.w3.org/2000/svg" xmlns:xlink="http://www.w3.org/1999/xlink" width="400" zoomAndPan="magnify" viewBox="0 0 300 299.999988" height="400" preserveAspectRatio="xMidYMid meet" version="1.0"><defs><g/></defs><g fill="#f5f5f5" fill-opacity="1"><g transform="translate(12.066391, 153.30209)"><g><path d="M 19.546875 -27.109375 C 17.796875 -27.109375 16.21875 -26.65625 14.8125 -25.75 C 13.414062 -24.84375 12.332031 -23.625 11.5625 -22.09375 C 10.800781 -20.570312 10.421875 -18.921875 10.421875 -17.140625 C 10.421875 -15.296875 10.8125 -13.597656 11.59375 -12.046875 C 12.375 -10.492188 13.460938 -9.265625 14.859375 -8.359375 C 16.265625 -7.453125 17.84375 -7 19.59375 -7 C 21.34375 -7 22.921875 -7.488281 24.328125 -8.46875 C 25.742188 -9.457031 26.898438 -10.890625 27.796875 -12.765625 L 36.921875 -12.765625 C 36.210938 -10.066406 35.015625 -7.707031 33.328125 -5.6875 C 31.640625 -3.675781 29.609375 -2.117188 27.234375 -1.015625 C 24.867188 0.0859375 22.351562 0.640625 19.6875 0.640625 C 17.257812 0.640625 14.960938 0.210938 12.796875 -0.640625 C 10.628906 -1.503906 8.679688 -2.78125 6.953125 -4.46875 C 5.140625 -6.21875 3.8125 -8.175781 2.96875 -10.34375 C 2.125 -12.507812 1.703125 -14.914062 1.703125 -17.5625 C 1.703125 -20.539062 2.484375 -23.347656 4.046875 -25.984375 C 5.617188 -28.628906 7.753906 -30.75 10.453125 -32.34375 C 13.160156 -33.945312 16.097656 -34.75 19.265625 -34.75 C 21.628906 -34.75 23.78125 -34.410156 25.71875 -33.734375 C 27.65625 -33.054688 29.46875 -32 31.15625 -30.5625 C 34.414062 -27.757812 36.335938 -24.625 36.921875 -21.15625 L 27.796875 -21.15625 C 27.054688 -23 25.941406 -24.453125 24.453125 -25.515625 C 22.960938 -26.578125 21.328125 -27.109375 19.546875 -27.109375 Z M 19.546875 -27.109375 "/></g></g></g><g fill="#f5f5f5" fill-opacity="1"><g transform="translate(49.491208, 153.30209)"><g><path d="M 15.34375 0.78125 C 12.769531 0.78125 10.4375 0.191406 8.34375 -0.984375 C 6.25 -2.171875 4.59375 -3.789062 3.375 -5.84375 C 2.164062 -7.90625 1.5625 -10.226562 1.5625 -12.8125 C 1.5625 -15.394531 2.175781 -17.722656 3.40625 -19.796875 C 4.632812 -21.867188 6.300781 -23.488281 8.40625 -24.65625 C 10.507812 -25.820312 12.820312 -26.40625 15.34375 -26.40625 C 17.894531 -26.40625 20.222656 -25.820312 22.328125 -24.65625 C 24.429688 -23.488281 26.085938 -21.867188 27.296875 -19.796875 C 28.515625 -17.722656 29.125 -15.425781 29.125 -12.90625 C 29.125 -10.289062 28.515625 -7.9375 27.296875 -5.84375 C 26.085938 -3.757812 24.429688 -2.132812 22.328125 -0.96875 C 20.222656 0.195312 17.894531 0.78125 15.34375 0.78125 Z M 21.484375 -12.8125 C 21.484375 -13.945312 21.210938 -15.003906 20.671875 -15.984375 C 20.128906 -16.972656 19.390625 -17.765625 18.453125 -18.359375 C 17.515625 -18.960938 16.460938 -19.265625 15.296875 -19.265625 C 14.191406 -19.265625 13.175781 -18.972656 12.25 -18.390625 C 11.332031 -17.804688 10.597656 -17.015625 10.046875 -16.015625 C 9.492188 -15.015625 9.21875 -13.945312 9.21875 -12.8125 C 9.21875 -11.644531 9.484375 -10.566406 10.015625 -9.578125 C 10.554688 -8.597656 11.296875 -7.816406 12.234375 -7.234375 C 13.171875 -6.648438 14.207031 -6.359375 15.34375 -6.359375 C 16.507812 -6.359375 17.5625 -6.65625 18.5 -7.25 C 19.4375 -7.851562 20.164062 -8.644531 20.6875 -9.625 C 21.21875 -10.613281 21.484375 -11.675781 21.484375 -12.8125 Z M 21.484375 -12.8125 "/></g></g></g><g fill="#f5f5f5" fill-opacity="1"><g transform="translate(79.265114, 153.30209)"><g><path d="M 14.796875 -19.265625 C 13.253906 -19.265625 12.140625 -18.84375 11.453125 -18 C 10.765625 -17.15625 10.421875 -15.859375 10.421875 -14.109375 L 10.421875 0 L 2.765625 0 L 2.765625 -25.578125 L 9.90625 -25.578125 L 9.90625 -22.859375 L 10 -22.859375 C 10.800781 -24.148438 11.757812 -25.070312 12.875 -25.625 C 14 -26.175781 15.363281 -26.453125 16.96875 -26.453125 C 18.625 -26.453125 20.164062 -26.113281 21.59375 -25.4375 C 23.019531 -24.757812 24.1875 -23.664062 25.09375 -22.15625 C 26 -20.65625 26.453125 -18.707031 26.453125 -16.3125 L 26.453125 0 L 18.8125 0 L 18.8125 -14.203125 C 18.8125 -15.953125 18.488281 -17.234375 17.84375 -18.046875 C 17.195312 -18.859375 16.179688 -19.265625 14.796875 -19.265625 Z M 14.796875 -19.265625 "/></g></g></g><g fill="#f5f5f5" fill-opacity="1"><g transform="translate(107.471965, 153.30209)"><g><path d="M 14.796875 -19.265625 C 13.253906 -19.265625 12.140625 -18.84375 11.453125 -18 C 10.765625 -17.15625 10.421875 -15.859375 10.421875 -14.109375 L 10.421875 0 L 2.765625 0 L 2.765625 -25.578125 L 9.90625 -25.578125 L 9.90625 -22.859375 L 10 -22.859375 C 10.800781 -24.148438 11.757812 -25.070312 12.875 -25.625 C 14 -26.175781 15.363281 -26.453125 16.96875 -26.453125 C 18.625 -26.453125 20.164062 -26.113281 21.59375 -25.4375 C 23.019531 -24.757812 24.1875 -23.664062 25.09375 -22.15625 C 26 -20.65625 26.453125 -18.707031 26.453125 -16.3125 L 26.453125 0 L 18.8125 0 L 18.8125 -14.203125 C 18.8125 -15.953125 18.488281 -17.234375 17.84375 -18.046875 C 17.195312 -18.859375 16.179688 -19.265625 14.796875 -19.265625 Z M 14.796875 -19.265625 "/></g></g></g><g fill="#f5f5f5" fill-opacity="1"><g transform="translate(135.678822, 153.30209)"><g><path d="M 14.9375 -5.625 C 15.945312 -5.625 16.8125 -5.816406 17.53125 -6.203125 C 18.257812 -6.585938 18.945312 -7.191406 19.59375 -8.015625 L 27.421875 -8.015625 C 26.191406 -5.222656 24.476562 -3.050781 22.28125 -1.5 C 20.082031 0.0507812 17.632812 0.828125 14.9375 0.828125 C 12.507812 0.828125 10.253906 0.226562 8.171875 -0.96875 C 6.097656 -2.164062 4.445312 -3.800781 3.21875 -5.875 C 1.988281 -7.945312 1.375 -10.226562 1.375 -12.71875 C 1.375 -15.144531 1.972656 -17.410156 3.171875 -19.515625 C 4.378906 -21.617188 6.003906 -23.300781 8.046875 -24.5625 C 10.085938 -25.820312 12.335938 -26.453125 14.796875 -26.453125 C 17.316406 -26.453125 19.601562 -25.835938 21.65625 -24.609375 C 23.71875 -23.378906 25.335938 -21.703125 26.515625 -19.578125 C 27.703125 -17.460938 28.296875 -15.097656 28.296875 -12.484375 C 28.296875 -11.753906 28.234375 -11.082031 28.109375 -10.46875 L 8.9375 -10.46875 C 9.15625 -9.019531 9.816406 -7.847656 10.921875 -6.953125 C 12.023438 -6.066406 13.363281 -5.625 14.9375 -5.625 Z M 14.796875 -20 C 13.378906 -20 12.140625 -19.609375 11.078125 -18.828125 C 10.023438 -18.046875 9.34375 -16.976562 9.03125 -15.625 L 20.65625 -15.625 C 20.34375 -16.945312 19.65625 -18.003906 18.59375 -18.796875 C 17.539062 -19.597656 16.273438 -20 14.796875 -20 Z M 14.796875 -20 "/></g></g></g><g fill="#f5f5f5" fill-opacity="1"><g transform="translate(164.530931, 153.30209)"><g><path d="M 15.125 -19.3125 C 13.394531 -19.3125 11.976562 -18.6875 10.875 -17.4375 C 9.769531 -16.195312 9.21875 -14.65625 9.21875 -12.8125 C 9.21875 -10.9375 9.785156 -9.382812 10.921875 -8.15625 C 12.054688 -6.925781 13.515625 -6.3125 15.296875 -6.3125 C 17.785156 -6.3125 19.628906 -7.445312 20.828125 -9.71875 L 28.625 -9.71875 C 28.132812 -7.601562 27.234375 -5.753906 25.921875 -4.171875 C 24.617188 -2.585938 23.03125 -1.359375 21.15625 -0.484375 C 19.28125 0.390625 17.253906 0.828125 15.078125 0.828125 C 12.585938 0.828125 10.3125 0.210938 8.25 -1.015625 C 6.1875 -2.242188 4.546875 -3.898438 3.328125 -5.984375 C 2.117188 -8.078125 1.515625 -10.367188 1.515625 -12.859375 C 1.515625 -15.347656 2.113281 -17.632812 3.3125 -19.71875 C 4.507812 -21.8125 6.140625 -23.457031 8.203125 -24.65625 C 10.265625 -25.851562 12.507812 -26.453125 14.9375 -26.453125 C 17.144531 -26.453125 19.203125 -26.003906 21.109375 -25.109375 C 23.015625 -24.222656 24.617188 -22.972656 25.921875 -21.359375 C 27.234375 -19.742188 28.117188 -17.863281 28.578125 -15.71875 L 20.828125 -15.71875 C 19.722656 -18.113281 17.820312 -19.3125 15.125 -19.3125 Z M 15.125 -19.3125 "/></g></g></g><g fill="#f5f5f5" fill-opacity="1"><g transform="translate(193.659587, 153.30209)"><g><path d="M 0.5 -19.78125 L 0.5 -25.578125 L 4.28125 -25.578125 L 4.28125 -34.109375 L 11.9375 -34.109375 L 11.9375 -25.578125 L 15.625 -25.578125 L 15.625 -19.78125 L 11.9375 -19.78125 L 11.9375 0 L 4.28125 0 L 4.28125 -19.78125 Z M 0.5 -19.78125 "/></g></g></g><g fill="#f5f5f5" fill-opacity="1"><g transform="translate(208.917941, 153.30209)"><g><path d="M 13.5 -34.109375 L 7.75 -3.09375 L 21.84375 -3.09375 L 21.296875 0 L 3.78125 0 L 10.09375 -34.109375 Z M 13.5 -34.109375 "/></g></g></g><g fill="#f5f5f5" fill-opacity="1"><g transform="translate(229.289519, 153.30209)"><g><path d="M 12.53125 -34.109375 L 11.484375 -28.296875 L 8.25 -28.296875 L 9.3125 -34.109375 Z M 10.875 -25.21875 L 6.21875 0 L 3 0 L 7.65625 -25.21875 Z M 10.875 -25.21875 "/></g></g></g><g fill="#f5f5f5" fill-opacity="1"><g transform="translate(237.585566, 153.30209)"><g><path d="M 24.75 -16.3125 C 24.75 -18.40625 24.179688 -20.035156 23.046875 -21.203125 C 21.910156 -22.367188 20.328125 -22.953125 18.296875 -22.953125 C 16.054688 -22.953125 14.054688 -22.191406 12.296875 -20.671875 C 10.546875 -19.148438 9.425781 -17.082031 8.9375 -14.46875 L 6.21875 0 L 3 0 L 7.65625 -25.21875 L 10.875 -25.21875 L 10.28125 -21.984375 L 10.375 -21.984375 C 11.414062 -23.210938 12.679688 -24.164062 14.171875 -24.84375 C 15.660156 -25.519531 17.222656 -25.859375 18.859375 -25.859375 C 21.742188 -25.859375 24 -25.070312 25.625 -23.5 C 27.257812 -21.9375 28.078125 -19.785156 28.078125 -17.046875 C 28.078125 -16.066406 27.890625 -14.578125 27.515625 -12.578125 L 25.171875 0 L 21.9375 0 L 24.46875 -13.640625 C 24.65625 -14.742188 24.75 -15.632812 24.75 -16.3125 Z M 24.75 -16.3125 "/></g></g></g><g fill="#f5f5f5" fill-opacity="1"><g transform="translate(264.778437, 153.30209)"><g><path d="M 7.328125 -4.796875 L 6.453125 0 L 3.21875 0 L 9.546875 -34.109375 L 12.765625 -34.109375 L 8.25 -9.8125 L 8.34375 -9.8125 L 22.953125 -25.21875 L 27.109375 -25.21875 L 14.796875 -12.484375 L 22.953125 0 L 18.8125 0 L 12.359375 -9.953125 Z M 7.328125 -4.796875 "/></g></g></g></svg>