<svg xmlns="http://www.w3.org/2000/svg" xmlns:xlink="http://www.w3.org/1999/xlink" width="400" zoomAndPan="magnify" viewBox="0 0 300 299.999988" height="400" preserveAspectRatio="xMidYMid meet" version="1.0"><path fill="#284777" d="M 280.046875 183.3125 C 287.792969 183.3125 294.050781 189.566406 294.050781 197.316406 C 294.050781 205.0625 287.792969 211.320312 280.046875 211.320312 C 272.296875 211.320312 266.042969 205.0625 266.042969 197.316406 C 266.042969 196.289062 266.136719 195.308594 266.371094 194.328125 C 267.722656 188.027344 273.324219 183.3125 280.046875 183.3125 Z M 280.046875 183.3125 " fill-opacity="1" fill-rule="nonzero"/><path fill="#284777" d="M 229.453125 31.621094 C 233.324219 13.980469 250.78125 2.824219 268.378906 6.699219 C 286.019531 10.570312 297.175781 28.027344 293.300781 45.625 C 291.433594 54.210938 286.300781 61.261719 279.535156 65.789062 L 279.535156 55.378906 C 279.535156 50.386719 275.472656 46.324219 270.433594 46.324219 L 261.375 46.324219 C 268.890625 46.324219 275.003906 40.257812 275.003906 32.742188 C 275.003906 25.226562 268.890625 19.113281 261.375 19.113281 C 253.863281 19.113281 247.746094 25.226562 247.746094 32.742188 C 247.746094 40.257812 253.863281 46.324219 261.375 46.324219 L 252.320312 46.324219 C 247.28125 46.324219 243.21875 50.386719 243.21875 55.378906 L 243.21875 65.742188 C 232.34375 58.507812 226.464844 45.109375 229.453125 31.621094 Z M 229.453125 31.621094 " fill-opacity="1" fill-rule="nonzero"/><path fill="#284777" d="M 37.339844 5.949219 C 55.402344 5.949219 70.011719 20.558594 70.011719 38.625 C 70.011719 41.46875 69.636719 44.269531 68.9375 46.882812 C 66.929688 54.726562 62.078125 61.398438 55.496094 65.789062 L 55.496094 55.378906 C 55.496094 50.386719 51.433594 46.324219 46.394531 46.324219 L 37.339844 46.324219 C 44.855469 46.324219 50.96875 40.257812 50.96875 32.742188 C 50.96875 25.226562 44.855469 19.113281 37.339844 19.113281 C 29.824219 19.113281 23.710938 25.226562 23.710938 32.742188 C 23.710938 40.257812 29.824219 46.324219 37.339844 46.324219 L 28.285156 46.324219 C 23.242188 46.324219 19.183594 50.386719 19.183594 55.378906 L 19.183594 65.789062 C 10.410156 59.90625 4.667969 49.964844 4.667969 38.625 C 4.667969 20.558594 19.277344 5.949219 37.339844 5.949219 Z M 37.339844 5.949219 " fill-opacity="1" fill-rule="nonzero"/><path fill="#284777" d="M 18.667969 108.632812 C 26.417969 108.632812 32.671875 114.890625 32.671875 122.636719 C 32.671875 123.804688 32.53125 124.925781 32.253906 125.996094 C 30.757812 132.113281 25.25 136.640625 18.667969 136.640625 C 10.921875 136.640625 4.667969 130.386719 4.667969 122.636719 C 4.667969 114.890625 10.921875 108.632812 18.667969 108.632812 Z M 18.667969 108.632812 " fill-opacity="1" fill-rule="nonzero"/><path fill="#284777" d="M 37.339844 229.988281 C 47.792969 229.988281 57.082031 234.890625 63.011719 242.496094 C 67.445312 248.050781 70.011719 255.003906 70.011719 262.660156 C 70.011719 274.003906 64.269531 283.945312 55.496094 289.824219 L 55.496094 279.417969 C 55.496094 274.421875 51.433594 270.363281 46.394531 270.363281 L 37.339844 270.363281 C 44.855469 270.363281 50.96875 264.292969 50.96875 256.78125 C 50.96875 249.265625 44.855469 243.152344 37.339844 243.152344 C 29.824219 243.152344 23.710938 249.265625 23.710938 256.78125 C 23.710938 264.292969 29.824219 270.363281 37.339844 270.363281 L 28.285156 270.363281 C 23.242188 270.363281 19.183594 274.421875 19.183594 279.417969 L 19.183594 289.824219 C 10.410156 283.945312 4.667969 274.003906 4.667969 262.660156 C 4.667969 244.597656 19.277344 229.988281 37.339844 229.988281 Z M 37.339844 229.988281 " fill-opacity="1" fill-rule="nonzero"/><path fill="#284777" d="M 233.371094 248.65625 C 246.253906 248.65625 256.710938 259.113281 256.710938 271.996094 C 256.710938 284.878906 246.253906 295.332031 233.371094 295.332031 C 220.488281 295.332031 210.035156 284.878906 210.035156 271.996094 C 210.035156 263.6875 214.375 256.40625 220.910156 252.253906 C 224.503906 249.964844 228.796875 248.65625 233.371094 248.65625 Z M 233.371094 248.65625 " fill-opacity="1" fill-rule="nonzero"/><path fill="#000000" d="M 261.449219 75.976562 C 268.5 75.976562 275.421875 73.964844 281.5 70.074219 C 289.902344 64.699219 295.707031 56.371094 297.847656 46.632812 C 299.984375 36.890625 298.203125 26.898438 292.828125 18.5 C 287.453125 10.097656 279.125 4.292969 269.386719 2.152344 C 259.636719 0.0078125 249.648438 1.796875 241.253906 7.171875 C 232.851562 12.546875 227.046875 20.875 224.90625 30.613281 C 222.769531 40.355469 224.550781 50.347656 229.925781 58.746094 C 234.480469 65.867188 241.175781 71.097656 249.035156 73.835938 L 236.164062 95.890625 C 217.949219 67.117188 185.859375 47.957031 149.359375 47.957031 C 128.691406 47.957031 109.445312 54.117188 93.316406 64.664062 L 74.035156 45.382812 C 74.4375 43.183594 74.679688 40.933594 74.679688 38.625 C 74.679688 18.035156 57.929688 1.285156 37.339844 1.285156 C 16.75 1.285156 0 18.035156 0 38.625 C 0 59.210938 16.75 75.960938 37.339844 75.960938 C 51.945312 75.960938 64.585938 67.511719 70.71875 55.265625 L 85.652344 70.199219 C 67.75 84.40625 54.691406 104.4375 49.355469 127.414062 L 37.3125 122.90625 C 37.3125 122.816406 37.339844 122.730469 37.339844 122.636719 C 37.339844 112.339844 28.964844 103.96875 18.667969 103.96875 C 8.375 103.96875 0 112.339844 0 122.636719 C 0 132.933594 8.375 141.308594 18.667969 141.308594 C 25.570312 141.308594 31.539062 137.503906 34.769531 131.921875 L 47.640625 136.738281 C 47.023438 141.289062 46.675781 145.925781 46.675781 150.640625 C 46.675781 179.230469 58.429688 205.117188 77.347656 223.753906 L 63.390625 235.960938 C 56.65625 229.390625 47.46875 225.320312 37.339844 225.320312 C 16.75 225.320312 0 242.070312 0 262.660156 C 0 283.25 16.75 300 37.339844 300 C 57.929688 300 74.679688 283.25 74.679688 262.660156 C 74.679688 255.5625 72.652344 248.941406 69.199219 243.285156 L 84.332031 230.046875 C 102.054688 244.585938 124.703125 253.324219 149.359375 253.324219 C 169.441406 253.324219 188.183594 247.507812 204.027344 237.5 L 214.449219 251.410156 C 208.882812 256.53125 205.367188 263.851562 205.367188 271.996094 C 205.367188 287.4375 217.929688 300 233.371094 300 C 248.816406 300 261.375 287.4375 261.375 271.996094 C 261.375 256.550781 248.816406 243.992188 233.371094 243.992188 C 229.429688 243.992188 225.683594 244.816406 222.277344 246.292969 L 211.6875 232.167969 C 225.445312 221.625 236.460938 207.691406 243.484375 191.617188 L 261.40625 197.59375 C 261.558594 207.757812 269.84375 215.984375 280.046875 215.984375 C 290.34375 215.984375 298.714844 207.613281 298.714844 197.316406 C 298.714844 187.019531 290.34375 178.644531 280.046875 178.644531 C 272.949219 178.644531 266.839844 182.671875 263.683594 188.515625 L 246.824219 182.894531 C 250.191406 172.746094 252.042969 161.910156 252.042969 150.640625 C 252.042969 134.378906 248.226562 118.996094 241.464844 105.316406 L 258.679688 75.824219 C 259.605469 75.894531 260.53125 75.976562 261.449219 75.976562 Z M 23.855469 63.15625 L 23.855469 55.398438 C 23.855469 52.960938 25.835938 50.984375 28.265625 50.984375 L 37.160156 50.984375 C 37.222656 50.984375 37.277344 51.003906 37.339844 51.003906 C 37.402344 51.003906 37.460938 50.984375 37.519531 50.984375 L 46.414062 50.984375 C 48.84375 50.984375 50.824219 52.964844 50.824219 55.398438 L 50.824219 63.15625 C 46.820312 65.363281 42.226562 66.628906 37.339844 66.628906 C 32.453125 66.628906 27.859375 65.363281 23.855469 63.15625 Z M 28.390625 32.726562 C 28.390625 27.792969 32.40625 23.777344 37.339844 23.777344 C 42.269531 23.777344 46.285156 27.792969 46.285156 32.726562 C 46.285156 37.59375 42.367188 41.550781 37.519531 41.648438 L 37.160156 41.648438 C 32.3125 41.550781 28.390625 37.59375 28.390625 32.726562 Z M 60.105469 54.875 C 59.90625 49.671875 56.816406 45.230469 52.382812 43.074219 C 54.417969 40.125 55.621094 36.566406 55.621094 32.726562 C 55.621094 22.644531 47.421875 14.441406 37.339844 14.441406 C 27.257812 14.441406 19.058594 22.640625 19.058594 32.726562 C 19.058594 36.566406 20.261719 40.125 22.296875 43.074219 C 17.863281 45.230469 14.773438 49.671875 14.574219 54.875 C 11.289062 50.285156 9.335938 44.683594 9.335938 38.625 C 9.335938 23.179688 21.898438 10.617188 37.339844 10.617188 C 52.78125 10.617188 65.34375 23.179688 65.34375 38.625 C 65.34375 44.683594 63.386719 50.285156 60.105469 54.875 Z M 18.667969 131.972656 C 13.523438 131.972656 9.335938 127.78125 9.335938 122.636719 C 9.335938 117.492188 13.523438 113.300781 18.667969 113.300781 C 23.816406 113.300781 28.003906 117.492188 28.003906 122.636719 C 28.003906 127.78125 23.816406 131.972656 18.667969 131.972656 Z M 23.855469 287.191406 L 23.855469 279.433594 C 23.855469 277 25.835938 275.023438 28.265625 275.023438 L 37.160156 275.023438 C 37.222656 275.023438 37.277344 275.039062 37.339844 275.039062 C 37.402344 275.039062 37.460938 275.023438 37.519531 275.023438 L 46.414062 275.023438 C 48.84375 275.023438 50.824219 277 50.824219 279.433594 L 50.824219 287.191406 C 46.820312 289.402344 42.226562 290.664062 37.339844 290.664062 C 32.453125 290.664062 27.859375 289.402344 23.855469 287.191406 Z M 28.390625 256.761719 C 28.390625 251.832031 32.40625 247.816406 37.339844 247.816406 C 42.269531 247.816406 46.285156 251.832031 46.285156 256.761719 C 46.285156 261.632812 42.367188 265.589844 37.519531 265.6875 L 37.160156 265.6875 C 32.3125 265.589844 28.390625 261.632812 28.390625 256.761719 Z M 60.105469 278.910156 C 59.90625 273.707031 56.816406 269.269531 52.382812 267.109375 C 54.417969 264.164062 55.621094 260.605469 55.621094 256.761719 C 55.621094 246.679688 47.421875 238.480469 37.339844 238.480469 C 27.257812 238.480469 19.058594 246.679688 19.058594 256.761719 C 19.058594 260.605469 20.261719 264.164062 22.296875 267.109375 C 17.867188 269.269531 14.777344 273.707031 14.574219 278.910156 C 11.289062 274.324219 9.335938 268.722656 9.335938 262.660156 C 9.335938 247.21875 21.898438 234.65625 37.339844 234.65625 C 52.78125 234.65625 65.34375 247.21875 65.34375 262.660156 C 65.34375 268.722656 63.386719 274.324219 60.105469 278.910156 Z M 252.042969 271.996094 C 252.042969 282.292969 243.667969 290.664062 233.371094 290.664062 C 223.074219 290.664062 214.703125 282.292969 214.703125 271.996094 C 214.703125 261.699219 223.074219 253.324219 233.371094 253.324219 C 243.667969 253.324219 252.042969 261.699219 252.042969 271.996094 Z M 280.046875 187.980469 C 285.191406 187.980469 289.382812 192.171875 289.382812 197.316406 C 289.382812 202.460938 285.191406 206.652344 280.046875 206.652344 C 274.902344 206.652344 270.710938 202.460938 270.710938 197.316406 C 270.710938 192.171875 274.902344 187.980469 280.046875 187.980469 Z M 162.703125 242.925781 C 159.847656 243.335938 156.957031 243.609375 154.027344 243.753906 L 154.027344 190.035156 C 168.398438 190.566406 182.316406 193.515625 195.371094 198.792969 C 188.09375 215.59375 177.023438 230.714844 162.703125 242.925781 Z M 136.023438 58.359375 C 138.875 57.949219 141.761719 57.675781 144.691406 57.53125 L 144.691406 111.3125 C 130.46875 110.785156 116.679688 107.84375 103.398438 102.464844 C 110.746094 85.472656 121.925781 70.320312 136.023438 58.359375 Z M 195.335938 102.5 C 182.292969 107.769531 168.386719 110.714844 154.027344 111.246094 L 154.027344 57.527344 C 156.953125 57.675781 159.84375 57.949219 162.695312 58.359375 C 176.796875 70.328125 187.984375 85.492188 195.335938 102.5 Z M 144.691406 180.636719 C 129.105469 181.171875 114.039062 184.386719 99.949219 190.148438 C 96.121094 179.035156 93.9375 167.308594 93.476562 155.308594 L 144.691406 155.308594 Z M 93.5625 145.972656 C 94.015625 134.023438 96.195312 122.371094 100.078125 111.1875 C 114.273438 116.945312 129.238281 120.117188 144.691406 120.648438 L 144.691406 145.972656 Z M 154.027344 120.582031 C 169.539062 120.050781 184.5625 116.890625 198.652344 111.222656 C 202.523438 122.390625 204.703125 134.03125 205.152344 145.972656 L 154.027344 145.972656 Z M 84.121094 145.972656 L 56.246094 145.972656 C 57.15625 127.679688 63.304688 110.769531 73.296875 96.714844 C 79.101562 100.785156 85.183594 104.359375 91.414062 107.371094 C 87.035156 119.757812 84.585938 132.703125 84.121094 145.972656 Z M 84.144531 155.308594 C 84.617188 168.625 87.078125 181.621094 91.394531 193.921875 C 85.125 196.960938 79.0625 200.523438 73.296875 204.566406 C 63.304688 190.515625 57.15625 173.605469 56.246094 155.308594 Z M 94.835938 202.632812 C 100.507812 215.691406 108.316406 227.796875 118.035156 238.46875 C 102.855469 233.039062 89.496094 223.816406 79.089844 211.898438 C 84.09375 208.421875 89.355469 205.332031 94.835938 202.632812 Z M 103.363281 198.835938 C 116.511719 193.476562 130.371094 190.5 144.691406 189.972656 L 144.691406 243.753906 C 141.761719 243.609375 138.871094 243.335938 136.015625 242.925781 C 121.703125 230.722656 110.640625 215.621094 103.363281 198.835938 Z M 154.027344 180.703125 L 154.027344 155.308594 L 205.238281 155.308594 C 204.78125 167.292969 202.601562 179.007812 198.78125 190.109375 C 184.652344 184.40625 169.585938 181.234375 154.027344 180.703125 Z M 214.574219 155.308594 L 242.46875 155.308594 C 241.558594 173.636719 235.386719 190.574219 225.363281 204.640625 C 219.589844 200.570312 213.566406 196.996094 207.316406 193.933594 C 211.636719 181.628906 214.101562 168.628906 214.574219 155.308594 Z M 214.59375 145.972656 C 214.128906 132.695312 211.679688 119.742188 207.300781 107.355469 C 213.554688 104.292969 219.585938 100.71875 225.363281 96.644531 C 235.386719 110.710938 241.558594 127.644531 242.46875 145.972656 Z M 219.566406 89.316406 C 214.519531 92.84375 209.277344 95.96875 203.847656 98.667969 C 198.144531 85.519531 190.320312 73.390625 180.714844 62.828125 C 195.851562 68.25 209.175781 77.441406 219.566406 89.316406 Z M 118.003906 62.824219 C 108.394531 73.394531 100.566406 85.523438 94.871094 98.671875 C 89.417969 95.988281 84.132812 92.886719 79.089844 89.382812 C 89.488281 77.472656 102.835938 68.261719 118.003906 62.824219 Z M 180.679688 238.46875 C 190.398438 227.800781 198.207031 215.695312 203.878906 202.632812 C 209.300781 205.328125 214.53125 208.449219 219.566406 211.964844 C 209.167969 223.851562 195.832031 233.046875 180.679688 238.46875 Z M 255.375 65.976562 C 252.695312 65.386719 250.230469 64.316406 247.894531 63.027344 L 247.894531 55.398438 C 247.894531 52.960938 249.871094 50.984375 252.300781 50.984375 L 261.195312 50.984375 C 261.257812 50.984375 261.316406 51.003906 261.378906 51.003906 C 261.4375 51.003906 261.496094 50.984375 261.558594 50.984375 L 270.453125 50.984375 C 272.882812 50.984375 274.859375 52.964844 274.859375 55.398438 L 274.859375 63.132812 C 268.917969 66.410156 262.070312 67.445312 255.375 65.976562 Z M 252.429688 32.726562 C 252.429688 27.792969 256.445312 23.777344 261.375 23.777344 C 266.308594 23.777344 270.324219 27.792969 270.324219 32.726562 C 270.324219 37.59375 266.402344 41.550781 261.558594 41.648438 L 261.195312 41.648438 C 256.351562 41.550781 252.429688 37.59375 252.429688 32.726562 Z M 234.023438 32.621094 C 235.628906 25.3125 239.980469 19.070312 246.285156 15.035156 C 250.84375 12.117188 256.03125 10.609375 261.320312 10.609375 C 263.335938 10.609375 265.363281 10.828125 267.378906 11.269531 C 274.6875 12.875 280.929688 17.226562 284.964844 23.53125 C 288.996094 29.832031 290.335938 37.324219 288.730469 44.625 C 287.902344 48.390625 286.320312 51.855469 284.144531 54.898438 C 283.953125 49.683594 280.859375 45.234375 276.421875 43.074219 C 278.453125 40.125 279.660156 36.566406 279.660156 32.726562 C 279.660156 22.644531 271.460938 14.441406 261.378906 14.441406 C 251.296875 14.441406 243.09375 22.644531 243.09375 32.726562 C 243.09375 36.566406 244.300781 40.125 246.332031 43.074219 C 241.933594 45.214844 238.859375 49.613281 238.625 54.773438 C 238.359375 54.40625 238.035156 54.097656 237.789062 53.714844 C 233.757812 47.414062 232.417969 39.921875 234.023438 32.621094 Z M 234.023438 32.621094 " fill-opacity="1" fill-rule="nonzero"/></svg>