<svg xmlns="http://www.w3.org/2000/svg" xmlns:xlink="http://www.w3.org/1999/xlink" width="400" zoomAndPan="magnify" viewBox="0 0 300 299.999988" height="400" preserveAspectRatio="xMidYMid meet" version="1.0"><defs><g/><clipPath id="04dc182659"><path d="M 37.054688 0 L 262 0 L 262 225.75 L 37.054688 225.75 Z M 37.054688 0 " clip-rule="nonzero"/></clipPath></defs><path fill="#284777" d="M 247.910156 138.023438 C 253.746094 138.023438 258.453125 142.730469 258.453125 148.566406 C 258.453125 154.398438 253.746094 159.109375 247.910156 159.109375 C 242.078125 159.109375 237.367188 154.398438 237.367188 148.566406 C 237.367188 147.792969 237.4375 147.054688 237.613281 146.316406 C 238.632812 141.570312 242.851562 138.023438 247.910156 138.023438 Z M 247.910156 138.023438 " fill-opacity="1" fill-rule="nonzero"/><path fill="#284777" d="M 209.816406 23.808594 C 212.734375 10.523438 225.878906 2.125 239.125 5.042969 C 252.410156 7.960938 260.808594 21.101562 257.890625 34.351562 C 256.488281 40.816406 252.621094 46.125 247.523438 49.535156 L 247.523438 41.695312 C 247.523438 37.9375 244.46875 34.878906 240.671875 34.878906 L 233.855469 34.878906 C 239.511719 34.878906 244.117188 30.308594 244.117188 24.652344 C 244.117188 18.996094 239.511719 14.390625 233.855469 14.390625 C 228.195312 14.390625 223.59375 18.996094 223.59375 24.652344 C 223.59375 30.308594 228.195312 34.878906 233.855469 34.878906 L 227.035156 34.878906 C 223.242188 34.878906 220.183594 37.9375 220.183594 41.695312 L 220.183594 49.5 C 211.996094 44.050781 207.566406 33.964844 209.816406 23.808594 Z M 209.816406 23.808594 " fill-opacity="1" fill-rule="nonzero"/><path fill="#284777" d="M 65.171875 4.480469 C 78.769531 4.480469 89.769531 15.480469 89.769531 29.082031 C 89.769531 31.222656 89.488281 33.332031 88.960938 35.300781 C 87.449219 41.203125 83.796875 46.230469 78.839844 49.535156 L 78.839844 41.695312 C 78.839844 37.9375 75.785156 34.878906 71.988281 34.878906 L 65.171875 34.878906 C 70.828125 34.878906 75.433594 30.308594 75.433594 24.652344 C 75.433594 18.996094 70.828125 14.390625 65.171875 14.390625 C 59.511719 14.390625 54.910156 18.996094 54.910156 24.652344 C 54.910156 30.308594 59.511719 34.878906 65.171875 34.878906 L 58.351562 34.878906 C 54.558594 34.878906 51.5 37.9375 51.5 41.695312 L 51.5 49.535156 C 44.894531 45.105469 40.570312 37.621094 40.570312 29.082031 C 40.570312 15.480469 51.570312 4.480469 65.171875 4.480469 Z M 65.171875 4.480469 " fill-opacity="1" fill-rule="nonzero"/><path fill="#284777" d="M 51.113281 81.792969 C 56.945312 81.792969 61.65625 86.503906 61.65625 92.335938 C 61.65625 93.214844 61.550781 94.058594 61.339844 94.867188 C 60.214844 99.472656 56.066406 102.878906 51.113281 102.878906 C 45.28125 102.878906 40.570312 98.171875 40.570312 92.335938 C 40.570312 86.503906 45.28125 81.792969 51.113281 81.792969 Z M 51.113281 81.792969 " fill-opacity="1" fill-rule="nonzero"/><path fill="#284777" d="M 65.171875 173.164062 C 73.042969 173.164062 80.035156 176.855469 84.5 182.582031 C 87.835938 186.765625 89.769531 192 89.769531 197.765625 C 89.769531 206.304688 85.449219 213.789062 78.839844 218.21875 L 78.839844 210.382812 C 78.839844 206.621094 75.785156 203.5625 71.988281 203.5625 L 65.171875 203.5625 C 70.828125 203.5625 75.433594 198.996094 75.433594 193.335938 C 75.433594 187.679688 70.828125 183.074219 65.171875 183.074219 C 59.511719 183.074219 54.910156 187.679688 54.910156 193.335938 C 54.910156 198.996094 59.511719 203.5625 65.171875 203.5625 L 58.351562 203.5625 C 54.558594 203.5625 51.5 206.621094 51.5 210.382812 L 51.5 218.21875 C 44.894531 213.789062 40.570312 206.304688 40.570312 197.765625 C 40.570312 184.164062 51.570312 173.164062 65.171875 173.164062 Z M 65.171875 173.164062 " fill-opacity="1" fill-rule="nonzero"/><path fill="#284777" d="M 212.769531 187.222656 C 222.46875 187.222656 230.339844 195.09375 230.339844 204.792969 C 230.339844 214.492188 222.46875 222.363281 212.769531 222.363281 C 203.070312 222.363281 195.199219 214.492188 195.199219 204.792969 C 195.199219 198.539062 198.464844 193.054688 203.386719 189.929688 C 206.09375 188.207031 209.324219 187.222656 212.769531 187.222656 Z M 212.769531 187.222656 " fill-opacity="1" fill-rule="nonzero"/><g clip-path="url(#04dc182659)"><path fill="#000000" d="M 233.910156 57.203125 C 239.21875 57.203125 244.429688 55.691406 249.007812 52.761719 C 255.332031 48.714844 259.703125 42.445312 261.3125 35.109375 C 262.921875 27.777344 261.582031 20.253906 257.535156 13.929688 C 253.488281 7.601562 247.21875 3.230469 239.882812 1.621094 C 232.542969 0.00390625 225.023438 1.355469 218.703125 5.398438 C 212.378906 9.445312 208.003906 15.714844 206.394531 23.050781 C 204.785156 30.382812 206.128906 37.90625 210.175781 44.230469 C 213.605469 49.59375 218.644531 53.53125 224.5625 55.59375 L 214.871094 72.199219 C 201.15625 50.535156 176.996094 36.109375 149.511719 36.109375 C 133.953125 36.109375 119.460938 40.746094 107.316406 48.6875 L 92.800781 34.167969 C 93.101562 32.515625 93.285156 30.820312 93.285156 29.082031 C 93.285156 13.578125 80.671875 0.964844 65.171875 0.964844 C 49.667969 0.964844 37.054688 13.578125 37.054688 29.082031 C 37.054688 44.582031 49.667969 57.195312 65.171875 57.195312 C 76.167969 57.195312 85.683594 50.832031 90.300781 41.609375 L 101.546875 52.855469 C 88.066406 63.550781 78.234375 78.632812 74.21875 95.933594 L 65.148438 92.539062 C 65.152344 92.46875 65.171875 92.40625 65.171875 92.335938 C 65.171875 84.585938 58.867188 78.28125 51.113281 78.28125 C 43.359375 78.28125 37.054688 84.585938 37.054688 92.335938 C 37.054688 100.089844 43.359375 106.394531 51.113281 106.394531 C 56.308594 106.394531 60.804688 103.53125 63.234375 99.328125 L 72.925781 102.953125 C 72.460938 106.378906 72.199219 109.871094 72.199219 113.421875 C 72.199219 134.949219 81.050781 154.441406 95.292969 168.472656 L 84.785156 177.664062 C 79.714844 172.714844 72.796875 169.652344 65.171875 169.652344 C 49.667969 169.652344 37.054688 182.261719 37.054688 197.765625 C 37.054688 213.265625 49.667969 225.878906 65.171875 225.878906 C 80.671875 225.878906 93.285156 213.265625 93.285156 197.765625 C 93.285156 192.417969 91.757812 187.4375 89.15625 183.175781 L 100.550781 173.210938 C 113.894531 184.15625 130.949219 190.734375 149.511719 190.734375 C 164.632812 190.734375 178.746094 186.355469 190.671875 178.820312 L 198.523438 189.292969 C 194.332031 193.148438 191.683594 198.660156 191.683594 204.792969 C 191.683594 216.421875 201.140625 225.878906 212.769531 225.878906 C 224.394531 225.878906 233.855469 216.421875 233.855469 204.792969 C 233.855469 193.164062 224.394531 183.707031 212.769531 183.707031 C 209.800781 183.707031 206.980469 184.332031 204.414062 185.441406 L 196.441406 174.804688 C 206.800781 166.867188 215.097656 156.375 220.382812 144.277344 L 233.875 148.773438 C 233.992188 156.429688 240.230469 162.621094 247.910156 162.621094 C 255.664062 162.621094 261.96875 156.316406 261.96875 148.566406 C 261.96875 140.8125 255.664062 134.507812 247.910156 134.507812 C 242.566406 134.507812 237.96875 137.539062 235.589844 141.9375 L 222.898438 137.707031 C 225.433594 130.0625 226.824219 121.90625 226.824219 113.421875 C 226.824219 101.175781 223.953125 89.597656 218.863281 79.296875 L 231.824219 57.089844 C 232.519531 57.144531 233.214844 57.203125 233.910156 57.203125 Z M 55.019531 47.550781 L 55.019531 41.710938 C 55.019531 39.878906 56.507812 38.386719 58.335938 38.386719 L 65.035156 38.386719 C 65.082031 38.386719 65.125 38.402344 65.171875 38.402344 C 65.21875 38.402344 65.261719 38.386719 65.304688 38.386719 L 72.003906 38.386719 C 73.832031 38.386719 75.324219 39.878906 75.324219 41.710938 L 75.324219 47.550781 C 72.308594 49.214844 68.847656 50.167969 65.171875 50.167969 C 61.492188 50.167969 58.03125 49.214844 55.019531 47.550781 Z M 58.433594 24.640625 C 58.433594 20.925781 61.457031 17.902344 65.171875 17.902344 C 68.882812 17.902344 71.90625 20.925781 71.90625 24.640625 C 71.90625 28.304688 68.953125 31.285156 65.304688 31.359375 L 65.035156 31.359375 C 61.386719 31.285156 58.433594 28.304688 58.433594 24.640625 Z M 82.308594 41.316406 C 82.160156 37.398438 79.832031 34.054688 76.496094 32.429688 C 78.027344 30.210938 78.9375 27.53125 78.9375 24.640625 C 78.9375 17.046875 72.761719 10.875 65.171875 10.875 C 57.578125 10.875 51.40625 17.046875 51.40625 24.640625 C 51.40625 27.53125 52.3125 30.210938 53.84375 32.429688 C 50.507812 34.054688 48.179688 37.398438 48.03125 41.316406 C 45.558594 37.859375 44.085938 33.644531 44.085938 29.082031 C 44.085938 17.453125 53.542969 7.996094 65.171875 7.996094 C 76.796875 7.996094 86.253906 17.453125 86.253906 29.082031 C 86.253906 33.644531 84.785156 37.859375 82.308594 41.316406 Z M 51.113281 99.367188 C 47.238281 99.367188 44.085938 96.210938 44.085938 92.335938 C 44.085938 88.460938 47.238281 85.308594 51.113281 85.308594 C 54.988281 85.308594 58.140625 88.460938 58.140625 92.335938 C 58.140625 96.210938 54.988281 99.367188 51.113281 99.367188 Z M 55.019531 216.234375 L 55.019531 210.394531 C 55.019531 208.5625 56.507812 207.074219 58.335938 207.074219 L 65.035156 207.074219 C 65.082031 207.074219 65.125 207.085938 65.171875 207.085938 C 65.21875 207.085938 65.261719 207.074219 65.304688 207.074219 L 72.003906 207.074219 C 73.832031 207.074219 75.324219 208.5625 75.324219 210.394531 L 75.324219 216.234375 C 72.308594 217.898438 68.847656 218.851562 65.171875 218.851562 C 61.492188 218.851562 58.03125 217.898438 55.019531 216.234375 Z M 58.433594 193.324219 C 58.433594 189.609375 61.457031 186.585938 65.171875 186.585938 C 68.882812 186.585938 71.90625 189.609375 71.90625 193.324219 C 71.90625 196.992188 68.953125 199.96875 65.304688 200.042969 L 65.035156 200.042969 C 61.386719 199.96875 58.433594 196.992188 58.433594 193.324219 Z M 82.308594 210 C 82.160156 206.082031 79.832031 202.738281 76.496094 201.113281 C 78.027344 198.898438 78.9375 196.21875 78.9375 193.324219 C 78.9375 185.734375 72.761719 179.558594 65.171875 179.558594 C 57.578125 179.558594 51.40625 185.734375 51.40625 193.324219 C 51.40625 196.214844 52.3125 198.898438 53.84375 201.113281 C 50.507812 202.738281 48.179688 206.082031 48.03125 210 C 45.558594 206.546875 44.085938 202.328125 44.085938 197.765625 C 44.085938 186.136719 53.542969 176.679688 65.171875 176.679688 C 76.796875 176.679688 86.253906 186.136719 86.253906 197.765625 C 86.253906 202.328125 84.785156 206.546875 82.308594 210 Z M 226.824219 204.792969 C 226.824219 212.546875 220.519531 218.851562 212.769531 218.851562 C 205.015625 218.851562 198.710938 212.546875 198.710938 204.792969 C 198.710938 197.039062 205.015625 190.734375 212.769531 190.734375 C 220.519531 190.734375 226.824219 197.039062 226.824219 204.792969 Z M 247.910156 141.535156 C 251.785156 141.535156 254.941406 144.691406 254.941406 148.566406 C 254.941406 152.441406 251.785156 155.59375 247.910156 155.59375 C 244.035156 155.59375 240.882812 152.441406 240.882812 148.566406 C 240.882812 144.691406 244.035156 141.535156 247.910156 141.535156 Z M 159.558594 182.90625 C 157.410156 183.214844 155.234375 183.417969 153.027344 183.53125 L 153.027344 143.082031 C 163.851562 143.484375 174.328125 145.703125 184.15625 149.679688 C 178.679688 162.328125 170.34375 173.710938 159.558594 182.90625 Z M 139.472656 43.941406 C 141.617188 43.628906 143.792969 43.425781 146 43.316406 L 146 83.8125 C 135.289062 83.414062 124.90625 81.199219 114.90625 77.148438 C 120.4375 64.355469 128.859375 52.945312 139.472656 43.941406 Z M 184.132812 77.175781 C 174.308594 81.144531 163.839844 83.363281 153.027344 83.761719 L 153.027344 43.316406 C 155.230469 43.425781 157.40625 43.628906 159.554688 43.9375 C 170.171875 52.949219 178.59375 64.367188 184.132812 77.175781 Z M 146 136.007812 C 134.261719 136.410156 122.917969 138.832031 112.3125 143.167969 C 109.429688 134.800781 107.78125 125.972656 107.4375 116.9375 L 146 116.9375 Z M 107.503906 109.910156 C 107.84375 100.910156 109.484375 92.136719 112.40625 83.714844 C 123.097656 88.050781 134.363281 90.4375 146 90.839844 L 146 109.910156 Z M 153.027344 90.789062 C 164.707031 90.386719 176.015625 88.011719 186.628906 83.742188 C 189.542969 92.152344 191.183594 100.914062 191.523438 109.910156 L 153.027344 109.910156 Z M 100.394531 109.910156 L 79.40625 109.910156 C 80.089844 96.132812 84.71875 83.402344 92.242188 72.820312 C 96.613281 75.882812 101.191406 78.574219 105.886719 80.84375 C 102.585938 90.171875 100.742188 99.917969 100.394531 109.910156 Z M 100.410156 116.9375 C 100.765625 126.960938 102.617188 136.746094 105.871094 146.007812 C 101.148438 148.296875 96.585938 150.980469 92.242188 154.023438 C 84.71875 143.445312 80.089844 130.714844 79.40625 116.9375 Z M 108.460938 152.566406 C 112.730469 162.402344 118.609375 171.515625 125.929688 179.550781 C 114.5 175.460938 104.4375 168.519531 96.605469 159.546875 C 100.375 156.925781 104.332031 154.601562 108.460938 152.566406 Z M 114.882812 149.710938 C 124.78125 145.675781 135.21875 143.433594 146 143.035156 L 146 183.53125 C 143.792969 183.421875 141.613281 183.214844 139.464844 182.90625 C 128.691406 173.71875 120.359375 162.347656 114.882812 149.710938 Z M 153.027344 136.054688 L 153.027344 116.9375 L 191.585938 116.9375 C 191.242188 125.960938 189.601562 134.777344 186.722656 143.140625 C 176.085938 138.847656 164.742188 136.457031 153.027344 136.054688 Z M 198.613281 116.9375 L 219.621094 116.9375 C 218.933594 130.738281 214.289062 143.488281 206.738281 154.078125 C 202.390625 151.015625 197.855469 148.324219 193.148438 146.019531 C 196.40625 136.753906 198.257812 126.964844 198.613281 116.9375 Z M 198.632812 109.910156 C 198.28125 99.910156 196.4375 90.15625 193.136719 80.832031 C 197.847656 78.527344 202.386719 75.832031 206.738281 72.765625 C 214.289062 83.355469 218.933594 96.109375 219.621094 109.910156 Z M 202.371094 67.25 C 198.574219 69.902344 194.628906 72.257812 190.539062 74.289062 C 186.246094 64.390625 180.355469 55.257812 173.121094 47.304688 C 184.519531 51.386719 194.550781 58.308594 202.371094 67.25 Z M 125.902344 47.304688 C 118.667969 55.261719 112.777344 64.394531 108.488281 74.292969 C 104.378906 72.273438 100.402344 69.9375 96.605469 67.300781 C 104.433594 58.332031 114.484375 51.394531 125.902344 47.304688 Z M 173.09375 179.550781 C 180.414062 171.515625 186.292969 162.402344 190.5625 152.570312 C 194.644531 154.597656 198.582031 156.945312 202.375 159.59375 C 194.546875 168.542969 184.503906 175.46875 173.09375 179.550781 Z M 229.335938 49.675781 C 227.320312 49.234375 225.460938 48.425781 223.703125 47.457031 L 223.703125 41.710938 C 223.703125 39.878906 225.191406 38.386719 227.023438 38.386719 L 233.71875 38.386719 C 233.765625 38.386719 233.808594 38.402344 233.855469 38.402344 C 233.902344 38.402344 233.945312 38.386719 233.992188 38.386719 L 240.6875 38.386719 C 242.515625 38.386719 244.007812 39.878906 244.007812 41.710938 L 244.007812 47.535156 C 239.53125 50.003906 234.378906 50.78125 229.335938 49.675781 Z M 227.117188 24.640625 C 227.117188 20.925781 230.140625 17.902344 233.855469 17.902344 C 237.566406 17.902344 240.589844 20.925781 240.589844 24.640625 C 240.589844 28.304688 237.640625 31.285156 233.992188 31.359375 L 233.71875 31.359375 C 230.070312 31.285156 227.117188 28.304688 227.117188 24.640625 Z M 213.257812 24.5625 C 214.46875 19.058594 217.746094 14.359375 222.492188 11.320312 C 225.921875 9.125 229.828125 7.988281 233.8125 7.988281 C 235.332031 7.988281 236.859375 8.152344 238.375 8.484375 C 243.875 9.695312 248.578125 12.972656 251.613281 17.71875 C 254.648438 22.460938 255.65625 28.101562 254.449219 33.601562 C 253.828125 36.433594 252.636719 39.042969 250.996094 41.335938 C 250.851562 37.410156 248.523438 34.058594 245.183594 32.429688 C 246.714844 30.210938 247.621094 27.53125 247.621094 24.640625 C 247.621094 17.046875 241.445312 10.875 233.855469 10.875 C 226.265625 10.875 220.089844 17.046875 220.089844 24.640625 C 220.089844 27.53125 220.996094 30.210938 222.527344 32.429688 C 219.214844 34.042969 216.898438 37.355469 216.722656 41.242188 C 216.523438 40.964844 216.28125 40.734375 216.09375 40.445312 C 213.0625 35.699219 212.050781 30.058594 213.257812 24.5625 Z M 213.257812 24.5625 " fill-opacity="1" fill-rule="nonzero"/></g><g fill="#000000" fill-opacity="1"><g transform="translate(12.066391, 264.302102)"><g><path d="M 19.546875 -27.109375 C 17.796875 -27.109375 16.21875 -26.65625 14.8125 -25.75 C 13.414062 -24.84375 12.332031 -23.625 11.5625 -22.09375 C 10.800781 -20.570312 10.421875 -18.921875 10.421875 -17.140625 C 10.421875 -15.296875 10.8125 -13.597656 11.59375 -12.046875 C 12.375 -10.492188 13.460938 -9.265625 14.859375 -8.359375 C 16.265625 -7.453125 17.84375 -7 19.59375 -7 C 21.34375 -7 22.921875 -7.488281 24.328125 -8.46875 C 25.742188 -9.457031 26.898438 -10.890625 27.796875 -12.765625 L 36.921875 -12.765625 C 36.210938 -10.066406 35.015625 -7.707031 33.328125 -5.6875 C 31.640625 -3.675781 29.609375 -2.117188 27.234375 -1.015625 C 24.867188 0.0859375 22.351562 0.640625 19.6875 0.640625 C 17.257812 0.640625 14.960938 0.210938 12.796875 -0.640625 C 10.628906 -1.503906 8.679688 -2.78125 6.953125 -4.46875 C 5.140625 -6.21875 3.8125 -8.175781 2.96875 -10.34375 C 2.125 -12.507812 1.703125 -14.914062 1.703125 -17.5625 C 1.703125 -20.539062 2.484375 -23.347656 4.046875 -25.984375 C 5.617188 -28.628906 7.753906 -30.75 10.453125 -32.34375 C 13.160156 -33.945312 16.097656 -34.75 19.265625 -34.75 C 21.628906 -34.75 23.78125 -34.410156 25.71875 -33.734375 C 27.65625 -33.054688 29.46875 -32 31.15625 -30.5625 C 34.414062 -27.757812 36.335938 -24.625 36.921875 -21.15625 L 27.796875 -21.15625 C 27.054688 -23 25.941406 -24.453125 24.453125 -25.515625 C 22.960938 -26.578125 21.328125 -27.109375 19.546875 -27.109375 Z M 19.546875 -27.109375 "/></g></g></g><g fill="#000000" fill-opacity="1"><g transform="translate(49.491208, 264.302102)"><g><path d="M 15.34375 0.78125 C 12.769531 0.78125 10.4375 0.191406 8.34375 -0.984375 C 6.25 -2.171875 4.59375 -3.789062 3.375 -5.84375 C 2.164062 -7.90625 1.5625 -10.226562 1.5625 -12.8125 C 1.5625 -15.394531 2.175781 -17.722656 3.40625 -19.796875 C 4.632812 -21.867188 6.300781 -23.488281 8.40625 -24.65625 C 10.507812 -25.820312 12.820312 -26.40625 15.34375 -26.40625 C 17.894531 -26.40625 20.222656 -25.820312 22.328125 -24.65625 C 24.429688 -23.488281 26.085938 -21.867188 27.296875 -19.796875 C 28.515625 -17.722656 29.125 -15.425781 29.125 -12.90625 C 29.125 -10.289062 28.515625 -7.9375 27.296875 -5.84375 C 26.085938 -3.757812 24.429688 -2.132812 22.328125 -0.96875 C 20.222656 0.195312 17.894531 0.78125 15.34375 0.78125 Z M 21.484375 -12.8125 C 21.484375 -13.945312 21.210938 -15.003906 20.671875 -15.984375 C 20.128906 -16.972656 19.390625 -17.765625 18.453125 -18.359375 C 17.515625 -18.960938 16.460938 -19.265625 15.296875 -19.265625 C 14.191406 -19.265625 13.175781 -18.972656 12.25 -18.390625 C 11.332031 -17.804688 10.597656 -17.015625 10.046875 -16.015625 C 9.492188 -15.015625 9.21875 -13.945312 9.21875 -12.8125 C 9.21875 -11.644531 9.484375 -10.566406 10.015625 -9.578125 C 10.554688 -8.597656 11.296875 -7.816406 12.234375 -7.234375 C 13.171875 -6.648438 14.207031 -6.359375 15.34375 -6.359375 C 16.507812 -6.359375 17.5625 -6.65625 18.5 -7.25 C 19.4375 -7.851562 20.164062 -8.644531 20.6875 -9.625 C 21.21875 -10.613281 21.484375 -11.675781 21.484375 -12.8125 Z M 21.484375 -12.8125 "/></g></g></g><g fill="#000000" fill-opacity="1"><g transform="translate(79.265114, 264.302102)"><g><path d="M 14.796875 -19.265625 C 13.253906 -19.265625 12.140625 -18.84375 11.453125 -18 C 10.765625 -17.15625 10.421875 -15.859375 10.421875 -14.109375 L 10.421875 0 L 2.765625 0 L 2.765625 -25.578125 L 9.90625 -25.578125 L 9.90625 -22.859375 L 10 -22.859375 C 10.800781 -24.148438 11.757812 -25.070312 12.875 -25.625 C 14 -26.175781 15.363281 -26.453125 16.96875 -26.453125 C 18.625 -26.453125 20.164062 -26.113281 21.59375 -25.4375 C 23.019531 -24.757812 24.1875 -23.664062 25.09375 -22.15625 C 26 -20.65625 26.453125 -18.707031 26.453125 -16.3125 L 26.453125 0 L 18.8125 0 L 18.8125 -14.203125 C 18.8125 -15.953125 18.488281 -17.234375 17.84375 -18.046875 C 17.195312 -18.859375 16.179688 -19.265625 14.796875 -19.265625 Z M 14.796875 -19.265625 "/></g></g></g><g fill="#000000" fill-opacity="1"><g transform="translate(107.471965, 264.302102)"><g><path d="M 14.796875 -19.265625 C 13.253906 -19.265625 12.140625 -18.84375 11.453125 -18 C 10.765625 -17.15625 10.421875 -15.859375 10.421875 -14.109375 L 10.421875 0 L 2.765625 0 L 2.765625 -25.578125 L 9.90625 -25.578125 L 9.90625 -22.859375 L 10 -22.859375 C 10.800781 -24.148438 11.757812 -25.070312 12.875 -25.625 C 14 -26.175781 15.363281 -26.453125 16.96875 -26.453125 C 18.625 -26.453125 20.164062 -26.113281 21.59375 -25.4375 C 23.019531 -24.757812 24.1875 -23.664062 25.09375 -22.15625 C 26 -20.65625 26.453125 -18.707031 26.453125 -16.3125 L 26.453125 0 L 18.8125 0 L 18.8125 -14.203125 C 18.8125 -15.953125 18.488281 -17.234375 17.84375 -18.046875 C 17.195312 -18.859375 16.179688 -19.265625 14.796875 -19.265625 Z M 14.796875 -19.265625 "/></g></g></g><g fill="#000000" fill-opacity="1"><g transform="translate(135.678822, 264.302102)"><g><path d="M 14.9375 -5.625 C 15.945312 -5.625 16.8125 -5.816406 17.53125 -6.203125 C 18.257812 -6.585938 18.945312 -7.191406 19.59375 -8.015625 L 27.421875 -8.015625 C 26.191406 -5.222656 24.476562 -3.050781 22.28125 -1.5 C 20.082031 0.0507812 17.632812 0.828125 14.9375 0.828125 C 12.507812 0.828125 10.253906 0.226562 8.171875 -0.96875 C 6.097656 -2.164062 4.445312 -3.800781 3.21875 -5.875 C 1.988281 -7.945312 1.375 -10.226562 1.375 -12.71875 C 1.375 -15.144531 1.972656 -17.410156 3.171875 -19.515625 C 4.378906 -21.617188 6.003906 -23.300781 8.046875 -24.5625 C 10.085938 -25.820312 12.335938 -26.453125 14.796875 -26.453125 C 17.316406 -26.453125 19.601562 -25.835938 21.65625 -24.609375 C 23.71875 -23.378906 25.335938 -21.703125 26.515625 -19.578125 C 27.703125 -17.460938 28.296875 -15.097656 28.296875 -12.484375 C 28.296875 -11.753906 28.234375 -11.082031 28.109375 -10.46875 L 8.9375 -10.46875 C 9.15625 -9.019531 9.816406 -7.847656 10.921875 -6.953125 C 12.023438 -6.066406 13.363281 -5.625 14.9375 -5.625 Z M 14.796875 -20 C 13.378906 -20 12.140625 -19.609375 11.078125 -18.828125 C 10.023438 -18.046875 9.34375 -16.976562 9.03125 -15.625 L 20.65625 -15.625 C 20.34375 -16.945312 19.65625 -18.003906 18.59375 -18.796875 C 17.539062 -19.597656 16.273438 -20 14.796875 -20 Z M 14.796875 -20 "/></g></g></g><g fill="#000000" fill-opacity="1"><g transform="translate(164.530931, 264.302102)"><g><path d="M 15.125 -19.3125 C 13.394531 -19.3125 11.976562 -18.6875 10.875 -17.4375 C 9.769531 -16.195312 9.21875 -14.65625 9.21875 -12.8125 C 9.21875 -10.9375 9.785156 -9.382812 10.921875 -8.15625 C 12.054688 -6.925781 13.515625 -6.3125 15.296875 -6.3125 C 17.785156 -6.3125 19.628906 -7.445312 20.828125 -9.71875 L 28.625 -9.71875 C 28.132812 -7.601562 27.234375 -5.753906 25.921875 -4.171875 C 24.617188 -2.585938 23.03125 -1.359375 21.15625 -0.484375 C 19.28125 0.390625 17.253906 0.828125 15.078125 0.828125 C 12.585938 0.828125 10.3125 0.210938 8.25 -1.015625 C 6.1875 -2.242188 4.546875 -3.898438 3.328125 -5.984375 C 2.117188 -8.078125 1.515625 -10.367188 1.515625 -12.859375 C 1.515625 -15.347656 2.113281 -17.632812 3.3125 -19.71875 C 4.507812 -21.8125 6.140625 -23.457031 8.203125 -24.65625 C 10.265625 -25.851562 12.507812 -26.453125 14.9375 -26.453125 C 17.144531 -26.453125 19.203125 -26.003906 21.109375 -25.109375 C 23.015625 -24.222656 24.617188 -22.972656 25.921875 -21.359375 C 27.234375 -19.742188 28.117188 -17.863281 28.578125 -15.71875 L 20.828125 -15.71875 C 19.722656 -18.113281 17.820312 -19.3125 15.125 -19.3125 Z M 15.125 -19.3125 "/></g></g></g><g fill="#000000" fill-opacity="1"><g transform="translate(193.659587, 264.302102)"><g><path d="M 0.5 -19.78125 L 0.5 -25.578125 L 4.28125 -25.578125 L 4.28125 -34.109375 L 11.9375 -34.109375 L 11.9375 -25.578125 L 15.625 -25.578125 L 15.625 -19.78125 L 11.9375 -19.78125 L 11.9375 0 L 4.28125 0 L 4.28125 -19.78125 Z M 0.5 -19.78125 "/></g></g></g><g fill="#000000" fill-opacity="1"><g transform="translate(208.917941, 264.302102)"><g><path d="M 13.5 -34.109375 L 7.75 -3.09375 L 21.84375 -3.09375 L 21.296875 0 L 3.78125 0 L 10.09375 -34.109375 Z M 13.5 -34.109375 "/></g></g></g><g fill="#000000" fill-opacity="1"><g transform="translate(229.289519, 264.302102)"><g><path d="M 12.53125 -34.109375 L 11.484375 -28.296875 L 8.25 -28.296875 L 9.3125 -34.109375 Z M 10.875 -25.21875 L 6.21875 0 L 3 0 L 7.65625 -25.21875 Z M 10.875 -25.21875 "/></g></g></g><g fill="#000000" fill-opacity="1"><g transform="translate(237.585566, 264.302102)"><g><path d="M 24.75 -16.3125 C 24.75 -18.40625 24.179688 -20.035156 23.046875 -21.203125 C 21.910156 -22.367188 20.328125 -22.953125 18.296875 -22.953125 C 16.054688 -22.953125 14.054688 -22.191406 12.296875 -20.671875 C 10.546875 -19.148438 9.425781 -17.082031 8.9375 -14.46875 L 6.21875 0 L 3 0 L 7.65625 -25.21875 L 10.875 -25.21875 L 10.28125 -21.984375 L 10.375 -21.984375 C 11.414062 -23.210938 12.679688 -24.164062 14.171875 -24.84375 C 15.660156 -25.519531 17.222656 -25.859375 18.859375 -25.859375 C 21.742188 -25.859375 24 -25.070312 25.625 -23.5 C 27.257812 -21.9375 28.078125 -19.785156 28.078125 -17.046875 C 28.078125 -16.066406 27.890625 -14.578125 27.515625 -12.578125 L 25.171875 0 L 21.9375 0 L 24.46875 -13.640625 C 24.65625 -14.742188 24.75 -15.632812 24.75 -16.3125 Z M 24.75 -16.3125 "/></g></g></g><g fill="#000000" fill-opacity="1"><g transform="translate(264.778437, 264.302102)"><g><path d="M 7.328125 -4.796875 L 6.453125 0 L 3.21875 0 L 9.546875 -34.109375 L 12.765625 -34.109375 L 8.25 -9.8125 L 8.34375 -9.8125 L 22.953125 -25.21875 L 27.109375 -25.21875 L 14.796875 -12.484375 L 22.953125 0 L 18.8125 0 L 12.359375 -9.953125 Z M 7.328125 -4.796875 "/></g></g></g><path fill="#284777" d="M 101.910156 280.136719 L 198.089844 280.136719 C 199.367188 280.136719 200.59375 280.644531 201.5 281.550781 C 202.40625 282.457031 202.914062 283.683594 202.914062 284.960938 L 202.914062 294.613281 C 202.914062 295.894531 202.40625 297.121094 201.5 298.027344 C 200.59375 298.929688 199.367188 299.441406 198.089844 299.441406 L 101.910156 299.441406 C 99.246094 299.441406 97.085938 297.277344 97.085938 294.613281 L 97.085938 284.960938 C 97.085938 282.296875 99.246094 280.136719 101.910156 280.136719 Z M 101.910156 280.136719 " fill-opacity="1" fill-rule="nonzero"/><g fill="#f5f5f5" fill-opacity="1"><g transform="translate(103.992589, 293.538163)"><g><path d="M 4.28125 0.125 C 3.738281 0.125 3.238281 0.03125 2.78125 -0.15625 C 2.332031 -0.351562 1.941406 -0.617188 1.609375 -0.953125 C 1.273438 -1.296875 1.015625 -1.691406 0.828125 -2.140625 C 0.640625 -2.597656 0.546875 -3.085938 0.546875 -3.609375 L 0.546875 -3.625 C 0.546875 -4.144531 0.640625 -4.628906 0.828125 -5.078125 C 1.015625 -5.535156 1.273438 -5.9375 1.609375 -6.28125 C 1.941406 -6.625 2.335938 -6.894531 2.796875 -7.09375 C 3.265625 -7.289062 3.78125 -7.390625 4.34375 -7.390625 C 4.675781 -7.390625 4.984375 -7.359375 5.265625 -7.296875 C 5.546875 -7.242188 5.800781 -7.171875 6.03125 -7.078125 C 6.257812 -6.984375 6.46875 -6.863281 6.65625 -6.71875 C 6.851562 -6.582031 7.035156 -6.429688 7.203125 -6.265625 L 6.1875 -5.09375 C 5.90625 -5.351562 5.613281 -5.550781 5.3125 -5.6875 C 5.019531 -5.832031 4.691406 -5.90625 4.328125 -5.90625 C 4.023438 -5.90625 3.742188 -5.847656 3.484375 -5.734375 C 3.222656 -5.617188 3 -5.457031 2.8125 -5.25 C 2.625 -5.039062 2.476562 -4.800781 2.375 -4.53125 C 2.269531 -4.257812 2.21875 -3.96875 2.21875 -3.65625 L 2.21875 -3.625 C 2.21875 -3.320312 2.269531 -3.03125 2.375 -2.75 C 2.476562 -2.46875 2.617188 -2.222656 2.796875 -2.015625 C 2.984375 -1.816406 3.207031 -1.65625 3.46875 -1.53125 C 3.726562 -1.40625 4.015625 -1.34375 4.328125 -1.34375 C 4.742188 -1.34375 5.09375 -1.421875 5.375 -1.578125 C 5.664062 -1.734375 5.953125 -1.941406 6.234375 -2.203125 L 7.25 -1.171875 C 7.0625 -0.972656 6.867188 -0.789062 6.671875 -0.625 C 6.472656 -0.46875 6.253906 -0.332031 6.015625 -0.21875 C 5.773438 -0.101562 5.507812 -0.0195312 5.21875 0.03125 C 4.9375 0.09375 4.625 0.125 4.28125 0.125 Z M 4.28125 0.125 "/></g></g></g><g fill="#f5f5f5" fill-opacity="1"><g transform="translate(111.852287, 293.538163)"><g><path d="M 4.40625 0.125 C 3.84375 0.125 3.320312 0.0234375 2.84375 -0.171875 C 2.375 -0.367188 1.96875 -0.632812 1.625 -0.96875 C 1.289062 -1.300781 1.023438 -1.691406 0.828125 -2.140625 C 0.640625 -2.597656 0.546875 -3.085938 0.546875 -3.609375 L 0.546875 -3.625 C 0.546875 -4.144531 0.640625 -4.628906 0.828125 -5.078125 C 1.023438 -5.535156 1.296875 -5.9375 1.640625 -6.28125 C 1.984375 -6.625 2.390625 -6.894531 2.859375 -7.09375 C 3.335938 -7.289062 3.859375 -7.390625 4.421875 -7.390625 C 4.984375 -7.390625 5.5 -7.289062 5.96875 -7.09375 C 6.4375 -6.894531 6.84375 -6.628906 7.1875 -6.296875 C 7.53125 -5.960938 7.796875 -5.566406 7.984375 -5.109375 C 8.171875 -4.660156 8.265625 -4.175781 8.265625 -3.65625 L 8.265625 -3.625 C 8.265625 -3.113281 8.164062 -2.628906 7.96875 -2.171875 C 7.78125 -1.722656 7.515625 -1.328125 7.171875 -0.984375 C 6.828125 -0.640625 6.414062 -0.367188 5.9375 -0.171875 C 5.46875 0.0234375 4.957031 0.125 4.40625 0.125 Z M 4.421875 -1.34375 C 4.734375 -1.34375 5.023438 -1.398438 5.296875 -1.515625 C 5.566406 -1.640625 5.796875 -1.804688 5.984375 -2.015625 C 6.179688 -2.222656 6.332031 -2.460938 6.4375 -2.734375 C 6.539062 -3.003906 6.59375 -3.296875 6.59375 -3.609375 L 6.59375 -3.625 C 6.59375 -3.9375 6.539062 -4.226562 6.4375 -4.5 C 6.332031 -4.78125 6.179688 -5.023438 5.984375 -5.234375 C 5.785156 -5.441406 5.550781 -5.601562 5.28125 -5.71875 C 5.007812 -5.84375 4.71875 -5.90625 4.40625 -5.90625 C 4.070312 -5.90625 3.769531 -5.847656 3.5 -5.734375 C 3.238281 -5.617188 3.015625 -5.457031 2.828125 -5.25 C 2.640625 -5.039062 2.488281 -4.800781 2.375 -4.53125 C 2.269531 -4.257812 2.21875 -3.96875 2.21875 -3.65625 L 2.21875 -3.625 C 2.21875 -3.320312 2.269531 -3.03125 2.375 -2.75 C 2.488281 -2.46875 2.644531 -2.222656 2.84375 -2.015625 C 3.039062 -1.816406 3.269531 -1.65625 3.53125 -1.53125 C 3.800781 -1.40625 4.097656 -1.34375 4.421875 -1.34375 Z M 4.421875 -1.34375 "/></g></g></g><g fill="#f5f5f5" fill-opacity="1"><g transform="translate(120.873306, 293.538163)"><g><path d="M 0.875 -7.265625 L 2.34375 -7.265625 L 5.75 -2.796875 L 5.75 -7.265625 L 7.328125 -7.265625 L 7.328125 0 L 5.96875 0 L 2.453125 -4.609375 L 2.453125 0 L 0.875 0 Z M 0.875 -7.265625 "/></g></g></g><g fill="#f5f5f5" fill-opacity="1"><g transform="translate(129.27219, 293.538163)"><g><path d="M 2.5625 -5.796875 L 0.359375 -5.796875 L 0.359375 -7.265625 L 6.375 -7.265625 L 6.375 -5.796875 L 4.15625 -5.796875 L 4.15625 0 L 2.5625 0 Z M 2.5625 -5.796875 "/></g></g></g><g fill="#f5f5f5" fill-opacity="1"><g transform="translate(136.198681, 293.538163)"><g><path d="M 3.359375 -7.3125 L 4.828125 -7.3125 L 7.953125 0 L 6.28125 0 L 5.609375 -1.625 L 2.546875 -1.625 L 1.875 0 L 0.25 0 Z M 5.046875 -3.046875 L 4.078125 -5.390625 L 3.109375 -3.046875 Z M 5.046875 -3.046875 "/></g></g></g><g fill="#f5f5f5" fill-opacity="1"><g transform="translate(144.597563, 293.538163)"><g><path d="M 4.28125 0.125 C 3.738281 0.125 3.238281 0.03125 2.78125 -0.15625 C 2.332031 -0.351562 1.941406 -0.617188 1.609375 -0.953125 C 1.273438 -1.296875 1.015625 -1.691406 0.828125 -2.140625 C 0.640625 -2.597656 0.546875 -3.085938 0.546875 -3.609375 L 0.546875 -3.625 C 0.546875 -4.144531 0.640625 -4.628906 0.828125 -5.078125 C 1.015625 -5.535156 1.273438 -5.9375 1.609375 -6.28125 C 1.941406 -6.625 2.335938 -6.894531 2.796875 -7.09375 C 3.265625 -7.289062 3.78125 -7.390625 4.34375 -7.390625 C 4.675781 -7.390625 4.984375 -7.359375 5.265625 -7.296875 C 5.546875 -7.242188 5.800781 -7.171875 6.03125 -7.078125 C 6.257812 -6.984375 6.46875 -6.863281 6.65625 -6.71875 C 6.851562 -6.582031 7.035156 -6.429688 7.203125 -6.265625 L 6.1875 -5.09375 C 5.90625 -5.351562 5.613281 -5.550781 5.3125 -5.6875 C 5.019531 -5.832031 4.691406 -5.90625 4.328125 -5.90625 C 4.023438 -5.90625 3.742188 -5.847656 3.484375 -5.734375 C 3.222656 -5.617188 3 -5.457031 2.8125 -5.25 C 2.625 -5.039062 2.476562 -4.800781 2.375 -4.53125 C 2.269531 -4.257812 2.21875 -3.96875 2.21875 -3.65625 L 2.21875 -3.625 C 2.21875 -3.320312 2.269531 -3.03125 2.375 -2.75 C 2.476562 -2.46875 2.617188 -2.222656 2.796875 -2.015625 C 2.984375 -1.816406 3.207031 -1.65625 3.46875 -1.53125 C 3.726562 -1.40625 4.015625 -1.34375 4.328125 -1.34375 C 4.742188 -1.34375 5.09375 -1.421875 5.375 -1.578125 C 5.664062 -1.734375 5.953125 -1.941406 6.234375 -2.203125 L 7.25 -1.171875 C 7.0625 -0.972656 6.867188 -0.789062 6.671875 -0.625 C 6.472656 -0.46875 6.253906 -0.332031 6.015625 -0.21875 C 5.773438 -0.101562 5.507812 -0.0195312 5.21875 0.03125 C 4.9375 0.09375 4.625 0.125 4.28125 0.125 Z M 4.28125 0.125 "/></g></g></g><g fill="#f5f5f5" fill-opacity="1"><g transform="translate(152.457263, 293.538163)"><g><path d="M 2.5625 -5.796875 L 0.359375 -5.796875 L 0.359375 -7.265625 L 6.375 -7.265625 L 6.375 -5.796875 L 4.15625 -5.796875 L 4.15625 0 L 2.5625 0 Z M 2.5625 -5.796875 "/></g></g></g><g fill="#f5f5f5" fill-opacity="1"><g transform="translate(159.383752, 293.538163)"><g/></g></g><g fill="#f5f5f5" fill-opacity="1"><g transform="translate(162.701843, 293.538163)"><g><path d="M 0.875 -7.265625 L 4.25 -7.265625 C 5.082031 -7.265625 5.710938 -7.050781 6.140625 -6.625 C 6.472656 -6.289062 6.640625 -5.878906 6.640625 -5.390625 L 6.640625 -5.359375 C 6.640625 -5.148438 6.613281 -4.96875 6.5625 -4.8125 C 6.507812 -4.65625 6.4375 -4.507812 6.34375 -4.375 C 6.257812 -4.25 6.160156 -4.140625 6.046875 -4.046875 C 5.929688 -3.953125 5.8125 -3.867188 5.6875 -3.796875 C 6.101562 -3.640625 6.429688 -3.421875 6.671875 -3.140625 C 6.921875 -2.867188 7.046875 -2.492188 7.046875 -2.015625 L 7.046875 -1.984375 C 7.046875 -1.660156 6.976562 -1.375 6.84375 -1.125 C 6.71875 -0.875 6.535156 -0.664062 6.296875 -0.5 C 6.054688 -0.332031 5.769531 -0.207031 5.4375 -0.125 C 5.101562 -0.0390625 4.734375 0 4.328125 0 L 0.875 0 Z M 5.046875 -5.109375 C 5.046875 -5.359375 4.957031 -5.546875 4.78125 -5.671875 C 4.601562 -5.796875 4.34375 -5.859375 4 -5.859375 L 2.421875 -5.859375 L 2.421875 -4.328125 L 3.90625 -4.328125 C 4.257812 -4.328125 4.535156 -4.382812 4.734375 -4.5 C 4.941406 -4.625 5.046875 -4.820312 5.046875 -5.09375 Z M 5.453125 -2.203125 C 5.453125 -2.453125 5.359375 -2.644531 5.171875 -2.78125 C 4.984375 -2.925781 4.6875 -3 4.28125 -3 L 2.421875 -3 L 2.421875 -1.40625 L 4.328125 -1.40625 C 4.679688 -1.40625 4.957031 -1.46875 5.15625 -1.59375 C 5.351562 -1.71875 5.453125 -1.914062 5.453125 -2.1875 Z M 5.453125 -2.203125 "/></g></g></g><g fill="#f5f5f5" fill-opacity="1"><g transform="translate(170.395637, 293.538163)"><g><path d="M 4.40625 0.125 C 3.84375 0.125 3.320312 0.0234375 2.84375 -0.171875 C 2.375 -0.367188 1.96875 -0.632812 1.625 -0.96875 C 1.289062 -1.300781 1.023438 -1.691406 0.828125 -2.140625 C 0.640625 -2.597656 0.546875 -3.085938 0.546875 -3.609375 L 0.546875 -3.625 C 0.546875 -4.144531 0.640625 -4.628906 0.828125 -5.078125 C 1.023438 -5.535156 1.296875 -5.9375 1.640625 -6.28125 C 1.984375 -6.625 2.390625 -6.894531 2.859375 -7.09375 C 3.335938 -7.289062 3.859375 -7.390625 4.421875 -7.390625 C 4.984375 -7.390625 5.5 -7.289062 5.96875 -7.09375 C 6.4375 -6.894531 6.84375 -6.628906 7.1875 -6.296875 C 7.53125 -5.960938 7.796875 -5.566406 7.984375 -5.109375 C 8.171875 -4.660156 8.265625 -4.175781 8.265625 -3.65625 L 8.265625 -3.625 C 8.265625 -3.113281 8.164062 -2.628906 7.96875 -2.171875 C 7.78125 -1.722656 7.515625 -1.328125 7.171875 -0.984375 C 6.828125 -0.640625 6.414062 -0.367188 5.9375 -0.171875 C 5.46875 0.0234375 4.957031 0.125 4.40625 0.125 Z M 4.421875 -1.34375 C 4.734375 -1.34375 5.023438 -1.398438 5.296875 -1.515625 C 5.566406 -1.640625 5.796875 -1.804688 5.984375 -2.015625 C 6.179688 -2.222656 6.332031 -2.460938 6.4375 -2.734375 C 6.539062 -3.003906 6.59375 -3.296875 6.59375 -3.609375 L 6.59375 -3.625 C 6.59375 -3.9375 6.539062 -4.226562 6.4375 -4.5 C 6.332031 -4.78125 6.179688 -5.023438 5.984375 -5.234375 C 5.785156 -5.441406 5.550781 -5.601562 5.28125 -5.71875 C 5.007812 -5.84375 4.71875 -5.90625 4.40625 -5.90625 C 4.070312 -5.90625 3.769531 -5.847656 3.5 -5.734375 C 3.238281 -5.617188 3.015625 -5.457031 2.828125 -5.25 C 2.640625 -5.039062 2.488281 -4.800781 2.375 -4.53125 C 2.269531 -4.257812 2.21875 -3.96875 2.21875 -3.65625 L 2.21875 -3.625 C 2.21875 -3.320312 2.269531 -3.03125 2.375 -2.75 C 2.488281 -2.46875 2.644531 -2.222656 2.84375 -2.015625 C 3.039062 -1.816406 3.269531 -1.65625 3.53125 -1.53125 C 3.800781 -1.40625 4.097656 -1.34375 4.421875 -1.34375 Z M 4.421875 -1.34375 "/></g></g></g><g fill="#f5f5f5" fill-opacity="1"><g transform="translate(179.416658, 293.538163)"><g><path d="M 4.40625 0.125 C 3.84375 0.125 3.320312 0.0234375 2.84375 -0.171875 C 2.375 -0.367188 1.96875 -0.632812 1.625 -0.96875 C 1.289062 -1.300781 1.023438 -1.691406 0.828125 -2.140625 C 0.640625 -2.597656 0.546875 -3.085938 0.546875 -3.609375 L 0.546875 -3.625 C 0.546875 -4.144531 0.640625 -4.628906 0.828125 -5.078125 C 1.023438 -5.535156 1.296875 -5.9375 1.640625 -6.28125 C 1.984375 -6.625 2.390625 -6.894531 2.859375 -7.09375 C 3.335938 -7.289062 3.859375 -7.390625 4.421875 -7.390625 C 4.984375 -7.390625 5.5 -7.289062 5.96875 -7.09375 C 6.4375 -6.894531 6.84375 -6.628906 7.1875 -6.296875 C 7.53125 -5.960938 7.796875 -5.566406 7.984375 -5.109375 C 8.171875 -4.660156 8.265625 -4.175781 8.265625 -3.65625 L 8.265625 -3.625 C 8.265625 -3.113281 8.164062 -2.628906 7.96875 -2.171875 C 7.78125 -1.722656 7.515625 -1.328125 7.171875 -0.984375 C 6.828125 -0.640625 6.414062 -0.367188 5.9375 -0.171875 C 5.46875 0.0234375 4.957031 0.125 4.40625 0.125 Z M 4.421875 -1.34375 C 4.734375 -1.34375 5.023438 -1.398438 5.296875 -1.515625 C 5.566406 -1.640625 5.796875 -1.804688 5.984375 -2.015625 C 6.179688 -2.222656 6.332031 -2.460938 6.4375 -2.734375 C 6.539062 -3.003906 6.59375 -3.296875 6.59375 -3.609375 L 6.59375 -3.625 C 6.59375 -3.9375 6.539062 -4.226562 6.4375 -4.5 C 6.332031 -4.78125 6.179688 -5.023438 5.984375 -5.234375 C 5.785156 -5.441406 5.550781 -5.601562 5.28125 -5.71875 C 5.007812 -5.84375 4.71875 -5.90625 4.40625 -5.90625 C 4.070312 -5.90625 3.769531 -5.847656 3.5 -5.734375 C 3.238281 -5.617188 3.015625 -5.457031 2.828125 -5.25 C 2.640625 -5.039062 2.488281 -4.800781 2.375 -4.53125 C 2.269531 -4.257812 2.21875 -3.96875 2.21875 -3.65625 L 2.21875 -3.625 C 2.21875 -3.320312 2.269531 -3.03125 2.375 -2.75 C 2.488281 -2.46875 2.644531 -2.222656 2.84375 -2.015625 C 3.039062 -1.816406 3.269531 -1.65625 3.53125 -1.53125 C 3.800781 -1.40625 4.097656 -1.34375 4.421875 -1.34375 Z M 4.421875 -1.34375 "/></g></g></g><g fill="#f5f5f5" fill-opacity="1"><g transform="translate(188.437679, 293.538163)"><g><path d="M 0.875 -7.265625 L 2.46875 -7.265625 L 2.46875 -4.09375 L 5.390625 -7.265625 L 7.359375 -7.265625 L 4.390625 -4.1875 L 7.484375 0 L 5.5625 0 L 3.3125 -3.09375 L 2.46875 -2.21875 L 2.46875 0 L 0.875 0 Z M 0.875 -7.265625 "/></g></g></g></svg>